<svg enable-background="new 0 0 51.9 10" viewBox="0 0 51.9 10" xmlns="http://www.w3.org/2000/svg"><g fill="#fff"><path d="m-.4-17.4c.8-1.2 2.2-1.9 3.8-1.9 1.1 0 1.7.3 1.9.3s.3-.5.7-.5c.3 0 .4.3.7.9.3 1 .5 1.5.5 1.8 0 .2-.2.3-.3.3-.3.1-.5-.3-.9-.7-.7-.7-1.4-1.1-2.1-1.1-1.4 0-2.5 1.3-2.5 3.3s1.1 3.2 2.8 3.2c.8 0 1.6-.3 2.2-.8.3-.3.5-.5.7-.5s.3.1.3.4c0 .2-.1.5-.3.7-.8 1-2.1 1.5-3.6 1.5-2.9 0-4.8-1.7-4.8-4.2 0-1 .3-1.9.9-2.7z"/><path d="m10.1-10.5c-1.2 0-2-.7-2-1.7 0-1.2 1.1-2 3-2h.4c-.2-.9-.5-1.2-1.2-1.2-.8 0-1.2.6-1.5.6-.2 0-.3-.1-.3-.3 0-.5.9-1.3 2.4-1.3 1.3 0 1.9.6 2.3 2.1l.6 1.9c.2.6.4.9.7.9.2 0 .3-.1.3-.1.1 0 .2.1.2.4 0 .5-.5.8-1.2.8-.6 0-1-.2-1.4-.7-.8.4-1.5.6-2.3.6zm1.1-2.9c-.7 0-1.2.4-1.2 1s.4.9 1.1.9c.6 0 1-.3 1-.7 0-.1 0-.2 0-.3l-.2-.6c-.1-.2-.4-.3-.7-.3z"/><path d="m15-12.5c0-.1.1-.2.2-.2.2 0 .4.3 1 .7.4.3 1.1.5 1.7.5.7 0 1-.2 1-.5 0-.4-.5-.6-1.5-.9-1.5-.5-2.3-.9-2.3-1.9 0-.9.8-1.5 1.9-1.5.7 0 1.2.2 1.5.2s.5-.4.7-.4c.1 0 .2.1.3.2l.7 1.2c.2.1.3.2.3.3 0 .2-.1.3-.2.3s-.3-.2-.6-.4c-.6-.4-1.1-.7-1.8-.7-.5 0-.7.2-.7.4 0 .5.7.6 2 .9 1.3.4 1.9 1 1.9 1.9 0 1.1-.8 1.9-2.2 1.9-.8 0-1.3-.2-1.6-.2s-.3.1-.5.3c-.1.2-.2.3-.3.3-.2 0-.3-.2-.5-.6l-.6-1.2c-.3-.3-.4-.5-.4-.6z"/><path d="m26.5-13.9c-.2 0-.3-.3-.5-.8-.2-.6-.6-.9-1.1-.9-.8 0-1.3.7-1.3 2s.7 2.2 1.7 2.2c.5 0 .9-.2 1.4-.6.3-.2.4-.5.6-.5s.3.1.3.3-.2.5-.5.9c-.5.6-1.3.9-2.2.9-1.9 0-3.2-1.2-3.2-2.9 0-.8.4-1.6 1.1-2.2.6-.5 1.4-.8 2.3-.8 1.3-.1 2.3.5 2.3.8 0 .1 0 .2-.1.2l-.6 1.2c0 .1-.1.2-.2.2z"/><path d="m30.1-10.5c-1.2 0-2-.7-2-1.7 0-1.2 1.1-2 3-2h.4c-.2-.9-.5-1.2-1.2-1.2-.8 0-1.2.6-1.5.6-.2 0-.3-.1-.3-.3 0-.5.9-1.3 2.4-1.3 1.3 0 1.9.6 2.3 2.1l.6 1.9c.2.6.4.9.7.9.2 0 .3-.1.3-.1.1 0 .2.1.2.4 0 .5-.5.8-1.2.8-.6 0-1-.2-1.4-.7-.8.4-1.5.6-2.3.6zm1-2.9c-.7 0-1.2.4-1.2 1s.4.9 1.1.9c.6 0 1-.3 1-.7 0-.1 0-.2 0-.3l-.2-.6c-.1-.2-.3-.3-.7-.3z"/><path d="m39.3-17.7c-.2-.1-.4-.1-.4-.3s.2-.3.6-.5l1.3-.7c.1-.1.2-.1.3-.1.2 0 .2.1.2.3v6.7c0 .3 0 .5.3.6.2.2.4.2.4.5 0 .2-.1.3-.3.3-.7.2-1.4.3-1.7.3-.4 0-.4-.2-.4-.8-.6.5-1.2.8-1.8.8-1.4 0-2.4-1.1-2.4-2.7 0-.7.2-1.3.6-1.9.6-.8 1.4-1.3 2.3-1.3.5 0 1 .1 1.4.4v-1.1c-.1-.3-.2-.4-.4-.5zm-.8 5.9c.6 0 1.1-.6 1.1-1.6 0-1.5-.4-2.2-1.3-2.2-.8 0-1.4.7-1.4 1.7 0 1.2.8 2.1 1.6 2.1z"/><path d="m42.9-14.9c-.2-.1-.4-.1-.4-.3s.2-.3.5-.4l1.3-.6c.1 0 .2-.1.3-.1.2 0 .2.1.2.4v3.9c0 .3.1.5.3.6.2.2.4.2.4.5 0 .2-.2.4-.5.4h-2.2c-.3 0-.4-.2-.4-.4 0-.3.2-.3.4-.5.2-.1.3-.3.3-.6v-2.5c.1-.3 0-.4-.2-.4zm-.1-2.7c0-.5.7-1.1 1.5-1.1.4 0 .6.2.6.5 0 .6-.7 1.1-1.5 1.1-.4 0-.6-.2-.6-.5z"/><path d="m48.3-10.5c-1.2 0-2-.7-2-1.7 0-1.2 1.1-2 3-2h.4c-.2-.9-.5-1.2-1.2-1.2-.8 0-1.2.6-1.5.6-.2 0-.3-.1-.3-.3 0-.5.9-1.3 2.4-1.3 1.3 0 1.9.6 2.3 2.1l.6 1.9c.2.6.4.9.7.9.2 0 .3-.1.3-.1.1 0 .2.1.2.4 0 .5-.5.8-1.2.8-.6 0-1-.2-1.4-.7-.8.4-1.5.6-2.3.6zm1-2.9c-.7 0-1.2.4-1.2 1s.4.9 1.1.9c.6 0 1-.3 1-.7 0-.1 0-.2 0-.3l-.2-.6c-.1-.2-.3-.3-.7-.3z"/><path d="m4.9 5.9c-.2 0-.3-.3-.5-.8-.1-.6-.5-.9-1-.9-.8 0-1.3.7-1.3 2s.7 2.2 1.7 2.2c.5 0 .9-.2 1.4-.6.3-.2.4-.5.6-.5s.3.1.3.3-.2.5-.5.9c-.5.6-1.3.9-2.2.9-1.9 0-3.2-1.2-3.2-2.9 0-.8.4-1.6 1.1-2.2.6-.5 1.4-.8 2.3-.8 1.3-.1 2.3.5 2.3.8 0 .1 0 .2-.1.2l-.6 1.2c0 .2-.1.2-.3.2z"/><path d="m8.6 9.3c-1.2 0-2-.7-2-1.7 0-1.2 1.1-2 3-2h.4c-.2-.9-.5-1.2-1.2-1.2-.8 0-1.2.6-1.5.6-.2 0-.3-.1-.3-.3 0-.5.9-1.3 2.4-1.3 1.3 0 1.9.6 2.3 2.1l.6 1.9c.2.6.4.9.7.9.2 0 .3-.1.3-.1.1 0 .2.1.2.4 0 .5-.5.8-1.2.8-.6 0-1-.2-1.4-.7-.8.3-1.6.5-2.3.6zm1-2.9c-.7 0-1.2.4-1.2 1s.4.9 1.1.9c.6 0 1-.3 1-.7 0-.1 0-.2 0-.3l-.2-.6c-.1-.2-.3-.3-.7-.3z"/><path d="m13.5 7.3c0-.1.1-.2.2-.2.2 0 .4.3 1 .7.4.3 1.1.5 1.7.5.7 0 1-.2 1-.5 0-.4-.5-.6-1.5-.9-1.5-.5-2.3-.9-2.3-1.9 0-.9.8-1.5 1.9-1.5.7 0 1.2.2 1.5.2s.5-.4.7-.4c.1 0 .2.1.3.2l.7 1.2c.1.1.2.3.2.3 0 .2-.1.3-.2.3s-.3-.2-.6-.4c-.6-.4-1.2-.7-1.9-.7-.5 0-.7.2-.7.4 0 .5.7.6 2 .9 1.3.4 1.9 1 1.9 1.9 0 1.1-.8 1.9-2.2 1.9-.8 0-1.3-.2-1.6-.2s-.3.1-.5.3c-.1.2-.2.3-.3.3-.2 0-.3-.2-.5-.6l-.6-1.2c-.2-.4-.2-.6-.2-.6z"/><path d="m24.9 5.9c-.2 0-.3-.3-.5-.8-.2-.6-.6-.9-1.1-.9-.8 0-1.3.7-1.3 2s.7 2.2 1.7 2.2c.5 0 .9-.2 1.4-.6.3-.2.4-.5.6-.5s.3.1.3.3-.2.5-.5.9c-.5.6-1.3.9-2.2.9-1.9 0-3.2-1.2-3.2-2.9 0-.8.4-1.6 1.1-2.2.6-.5 1.4-.8 2.3-.8 1.3 0 2.3.6 2.3.9 0 .1 0 .2-.1.2l-.6 1.2c0 .1-.1.1-.2.1z"/><path d="m28.5 9.3c-1.2 0-2-.7-2-1.7 0-1.2 1.1-2 3-2h.4c-.2-.9-.5-1.2-1.2-1.2-.8 0-1.2.6-1.5.6-.2 0-.3-.1-.3-.3 0-.5.9-1.3 2.4-1.3 1.3 0 1.9.6 2.3 2.1l.6 1.9c.2.6.4.9.7.9.2 0 .3-.1.3-.1.1 0 .2.1.2.4 0 .5-.5.8-1.2.8-.6 0-1-.2-1.4-.7-.8.3-1.5.5-2.3.6zm1-2.9c-.7 0-1.2.4-1.2 1s.4.9 1.1.9c.6 0 1-.3 1-.7 0-.1 0-.2 0-.3l-.2-.6c-.1-.2-.3-.3-.7-.3z"/><path d="m37.8 2.1c-.2-.1-.4-.1-.4-.4 0-.2.2-.3.6-.5l1.3-.7c.1-.1.2-.1.3-.1.2 0 .2.1.2.3v6.7c0 .3 0 .5.3.6.2.2.4.2.4.5 0 .2-.1.3-.3.3-.7.1-1.4.2-1.7.2-.4 0-.4-.2-.4-.8-.6.5-1.2.8-1.8.8-1.4 0-2.4-1.1-2.4-2.7 0-.7.2-1.3.6-1.9.6-.8 1.4-1.3 2.3-1.3.5 0 1 .1 1.4.4v-1.3c-.2 0-.3-.1-.4-.1zm-.8 5.9c.6 0 1.1-.6 1.1-1.6 0-1.5-.4-2.2-1.3-2.2-.8 0-1.4.7-1.4 1.7 0 1.2.7 2.1 1.6 2.1z"/><path d="m41.3 4.9c-.2-.1-.4-.1-.4-.3s.2-.3.5-.4l1.3-.6c.1 0 .2-.1.3-.1.2 0 .2.1.2.4v3.9c0 .3.1.5.3.6.2.2.4.2.4.5 0 .2-.2.4-.5.4h-2.2c-.3 0-.4-.2-.4-.4 0-.3.2-.3.4-.5.2-.1.3-.3.3-.6v-2.4c.1-.4.1-.5-.2-.5zm-.1-2.7c0-.5.7-1.1 1.5-1.1.4 0 .6.2.6.5 0 .6-.7 1.1-1.5 1.1-.3 0-.6-.2-.6-.5z"/><path d="m46.7 9.3c-1.2 0-2-.7-2-1.7 0-1.2 1.1-2 3-2h.4c-.2-.9-.5-1.2-1.2-1.2-.8 0-1.2.6-1.5.6-.2 0-.3-.1-.3-.3 0-.5.9-1.3 2.4-1.3 1.3 0 1.9.6 2.3 2.1l.6 1.9c.2.6.4.9.7.9.2 0 .3-.1.3-.1.1 0 .2.1.2.4 0 .5-.5.8-1.2.8-.6 0-1-.2-1.4-.7-.7.3-1.5.5-2.3.6zm1.1-2.9c-.7 0-1.2.4-1.2 1s.4.9 1.1.9c.6 0 1-.3 1-.7 0-.1 0-.2 0-.3l-.2-.6c-.1-.2-.4-.3-.7-.3z"/></g></svg>