<?xml version="1.0" encoding="utf-8"?>
<!-- Generator: Adobe Illustrator 21.1.0, SVG Export Plug-In . SVG Version: 6.00 Build 0)  -->
<svg version="1.1" id="Layer_1" xmlns="http://www.w3.org/2000/svg" xmlns:xlink="http://www.w3.org/1999/xlink" x="0px" y="0px"
	 viewBox="0 0 51.9 10" style="enable-background:new 0 0 51.9 10;" xml:space="preserve">
<style type="text/css">
	.st0{fill:#ABC8AD;}
</style>
<g>
	<path class="st0" d="M-0.4-17.4c0.8-1.2,2.2-1.9,3.8-1.9c1.1,0,1.7,0.3,1.9,0.3s0.3-0.5,0.7-0.5c0.3,0,0.4,0.3,0.7,0.9
		c0.3,1,0.5,1.5,0.5,1.8c0,0.2-0.2,0.3-0.3,0.3c-0.3,0.1-0.5-0.3-0.9-0.7c-0.7-0.7-1.4-1.1-2.1-1.1c-1.4,0-2.5,1.3-2.5,3.3
		s1.1,3.2,2.8,3.2c0.8,0,1.6-0.3,2.2-0.8c0.3-0.3,0.5-0.5,0.7-0.5s0.3,0.1,0.3,0.4c0,0.2-0.1,0.5-0.3,0.7c-0.8,1-2.1,1.5-3.6,1.5
		c-2.9,0-4.8-1.7-4.8-4.2C-1.3-15.7-1-16.6-0.4-17.4z"/>
	<path class="st0" d="M10.1-10.5c-1.2,0-2-0.7-2-1.7c0-1.2,1.1-2,3-2h0.4c-0.2-0.9-0.5-1.2-1.2-1.2c-0.8,0-1.2,0.6-1.5,0.6
		c-0.2,0-0.3-0.1-0.3-0.3c0-0.5,0.9-1.3,2.4-1.3c1.3,0,1.9,0.6,2.3,2.1l0.6,1.9c0.2,0.6,0.4,0.9,0.7,0.9c0.2,0,0.3-0.1,0.3-0.1
		c0.1,0,0.2,0.1,0.2,0.4c0,0.5-0.5,0.8-1.2,0.8c-0.6,0-1-0.2-1.4-0.7C11.6-10.7,10.9-10.5,10.1-10.5z M11.2-13.4
		c-0.7,0-1.2,0.4-1.2,1s0.4,0.9,1.1,0.9c0.6,0,1-0.3,1-0.7c0-0.1,0-0.2,0-0.3l-0.2-0.6C11.8-13.3,11.5-13.4,11.2-13.4z"/>
	<path class="st0" d="M15-12.5c0-0.1,0.1-0.2,0.2-0.2c0.2,0,0.4,0.3,1,0.7c0.4,0.3,1.1,0.5,1.7,0.5c0.7,0,1-0.2,1-0.5
		c0-0.4-0.5-0.6-1.5-0.9c-1.5-0.5-2.3-0.9-2.3-1.9c0-0.9,0.8-1.5,1.9-1.5c0.7,0,1.2,0.2,1.5,0.2s0.5-0.4,0.7-0.4
		c0.1,0,0.2,0.1,0.3,0.2l0.7,1.2c0.2,0.1,0.3,0.2,0.3,0.3c0,0.2-0.1,0.3-0.2,0.3s-0.3-0.2-0.6-0.4c-0.6-0.4-1.1-0.7-1.8-0.7
		c-0.5,0-0.7,0.2-0.7,0.4c0,0.5,0.7,0.6,2,0.9c1.3,0.4,1.9,1,1.9,1.9c0,1.1-0.8,1.9-2.2,1.9c-0.8,0-1.3-0.2-1.6-0.2
		s-0.3,0.1-0.5,0.3c-0.1,0.2-0.2,0.3-0.3,0.3c-0.2,0-0.3-0.2-0.5-0.6l-0.6-1.2C15.1-12.2,15-12.4,15-12.5z"/>
	<path class="st0" d="M26.5-13.9c-0.2,0-0.3-0.3-0.5-0.8c-0.2-0.6-0.6-0.9-1.1-0.9c-0.8,0-1.3,0.7-1.3,2s0.7,2.2,1.7,2.2
		c0.5,0,0.9-0.2,1.4-0.6c0.3-0.2,0.4-0.5,0.6-0.5s0.3,0.1,0.3,0.3s-0.2,0.5-0.5,0.9c-0.5,0.6-1.3,0.9-2.2,0.9
		c-1.9,0-3.2-1.2-3.2-2.9c0-0.8,0.4-1.6,1.1-2.2c0.6-0.5,1.4-0.8,2.3-0.8c1.3-0.1,2.3,0.5,2.3,0.8c0,0.1,0,0.2-0.1,0.2l-0.6,1.2
		C26.7-14,26.6-13.9,26.5-13.9z"/>
	<path class="st0" d="M30.1-10.5c-1.2,0-2-0.7-2-1.7c0-1.2,1.1-2,3-2h0.4c-0.2-0.9-0.5-1.2-1.2-1.2c-0.8,0-1.2,0.6-1.5,0.6
		c-0.2,0-0.3-0.1-0.3-0.3c0-0.5,0.9-1.3,2.4-1.3c1.3,0,1.9,0.6,2.3,2.1l0.6,1.9c0.2,0.6,0.4,0.9,0.7,0.9c0.2,0,0.3-0.1,0.3-0.1
		c0.1,0,0.2,0.1,0.2,0.4c0,0.5-0.5,0.8-1.2,0.8c-0.6,0-1-0.2-1.4-0.7C31.6-10.7,30.9-10.5,30.1-10.5z M31.1-13.4
		c-0.7,0-1.2,0.4-1.2,1s0.4,0.9,1.1,0.9c0.6,0,1-0.3,1-0.7c0-0.1,0-0.2,0-0.3l-0.2-0.6C31.7-13.3,31.5-13.4,31.1-13.4z"/>
	<path class="st0" d="M39.3-17.7c-0.2-0.1-0.4-0.1-0.4-0.3s0.2-0.3,0.6-0.5l1.3-0.7c0.1-0.1,0.2-0.1,0.3-0.1c0.2,0,0.2,0.1,0.2,0.3
		v6.7c0,0.3,0,0.5,0.3,0.6c0.2,0.2,0.4,0.2,0.4,0.5c0,0.2-0.1,0.3-0.3,0.3c-0.7,0.2-1.4,0.3-1.7,0.3c-0.4,0-0.4-0.2-0.4-0.8
		c-0.6,0.5-1.2,0.8-1.8,0.8c-1.4,0-2.4-1.1-2.4-2.7c0-0.7,0.2-1.3,0.6-1.9c0.6-0.8,1.4-1.3,2.3-1.3c0.5,0,1,0.1,1.4,0.4v-1.1
		C39.6-17.5,39.5-17.6,39.3-17.7z M38.5-11.8c0.6,0,1.1-0.6,1.1-1.6c0-1.5-0.4-2.2-1.3-2.2c-0.8,0-1.4,0.7-1.4,1.7
		C36.9-12.7,37.7-11.8,38.5-11.8z"/>
	<path class="st0" d="M42.9-14.9c-0.2-0.1-0.4-0.1-0.4-0.3s0.2-0.3,0.5-0.4l1.3-0.6c0.1,0,0.2-0.1,0.3-0.1c0.2,0,0.2,0.1,0.2,0.4
		v3.9c0,0.3,0.1,0.5,0.3,0.6c0.2,0.2,0.4,0.2,0.4,0.5c0,0.2-0.2,0.4-0.5,0.4h-2.2c-0.3,0-0.4-0.2-0.4-0.4c0-0.3,0.2-0.3,0.4-0.5
		c0.2-0.1,0.3-0.3,0.3-0.6v-2.5C43.2-14.8,43.1-14.9,42.9-14.9z M42.8-17.6c0-0.5,0.7-1.1,1.5-1.1c0.4,0,0.6,0.2,0.6,0.5
		c0,0.6-0.7,1.1-1.5,1.1C43-17.1,42.8-17.3,42.8-17.6z"/>
	<path class="st0" d="M48.3-10.5c-1.2,0-2-0.7-2-1.7c0-1.2,1.1-2,3-2h0.4c-0.2-0.9-0.5-1.2-1.2-1.2c-0.8,0-1.2,0.6-1.5,0.6
		c-0.2,0-0.3-0.1-0.3-0.3c0-0.5,0.9-1.3,2.4-1.3c1.3,0,1.9,0.6,2.3,2.1l0.6,1.9c0.2,0.6,0.4,0.9,0.7,0.9c0.2,0,0.3-0.1,0.3-0.1
		c0.1,0,0.2,0.1,0.2,0.4c0,0.5-0.5,0.8-1.2,0.8c-0.6,0-1-0.2-1.4-0.7C49.8-10.7,49.1-10.5,48.3-10.5z M49.3-13.4
		c-0.7,0-1.2,0.4-1.2,1s0.4,0.9,1.1,0.9c0.6,0,1-0.3,1-0.7c0-0.1,0-0.2,0-0.3L50-13.1C49.9-13.3,49.7-13.4,49.3-13.4z"/>
	<path class="st0" d="M4.9,5.9c-0.2,0-0.3-0.3-0.5-0.8c-0.1-0.6-0.5-0.9-1-0.9c-0.8,0-1.3,0.7-1.3,2s0.7,2.2,1.7,2.2
		c0.5,0,0.9-0.2,1.4-0.6c0.3-0.2,0.4-0.5,0.6-0.5s0.3,0.1,0.3,0.3S5.9,8.1,5.6,8.5C5.1,9.1,4.3,9.4,3.4,9.4c-1.9,0-3.2-1.2-3.2-2.9
		c0-0.8,0.4-1.6,1.1-2.2c0.6-0.5,1.4-0.8,2.3-0.8C4.9,3.4,5.9,4,5.9,4.3c0,0.1,0,0.2-0.1,0.2L5.2,5.7C5.2,5.9,5.1,5.9,4.9,5.9z"/>
	<path class="st0" d="M8.6,9.3c-1.2,0-2-0.7-2-1.7c0-1.2,1.1-2,3-2H10C9.8,4.7,9.5,4.4,8.8,4.4C8,4.4,7.6,5,7.3,5C7.1,5,7,4.9,7,4.7
		c0-0.5,0.9-1.3,2.4-1.3c1.3,0,1.9,0.6,2.3,2.1l0.6,1.9C12.5,8,12.7,8.3,13,8.3c0.2,0,0.3-0.1,0.3-0.1c0.1,0,0.2,0.1,0.2,0.4
		c0,0.5-0.5,0.8-1.2,0.8c-0.6,0-1-0.2-1.4-0.7C10.1,9,9.3,9.2,8.6,9.3z M9.6,6.4c-0.7,0-1.2,0.4-1.2,1s0.4,0.9,1.1,0.9
		c0.6,0,1-0.3,1-0.7c0-0.1,0-0.2,0-0.3l-0.2-0.6C10.2,6.5,10,6.4,9.6,6.4z"/>
	<path class="st0" d="M13.5,7.3c0-0.1,0.1-0.2,0.2-0.2c0.2,0,0.4,0.3,1,0.7c0.4,0.3,1.1,0.5,1.7,0.5c0.7,0,1-0.2,1-0.5
		c0-0.4-0.5-0.6-1.5-0.9C14.4,6.4,13.6,6,13.6,5c0-0.9,0.8-1.5,1.9-1.5c0.7,0,1.2,0.2,1.5,0.2s0.5-0.4,0.7-0.4
		c0.1,0,0.2,0.1,0.3,0.2l0.7,1.2C18.8,4.8,18.9,5,18.9,5c0,0.2-0.1,0.3-0.2,0.3s-0.3-0.2-0.6-0.4c-0.6-0.4-1.2-0.7-1.9-0.7
		c-0.5,0-0.7,0.2-0.7,0.4c0,0.5,0.7,0.6,2,0.9c1.3,0.4,1.9,1,1.9,1.9c0,1.1-0.8,1.9-2.2,1.9c-0.8,0-1.3-0.2-1.6-0.2
		s-0.3,0.1-0.5,0.3c-0.1,0.2-0.2,0.3-0.3,0.3c-0.2,0-0.3-0.2-0.5-0.6l-0.6-1.2C13.5,7.5,13.5,7.3,13.5,7.3z"/>
	<path class="st0" d="M24.9,5.9c-0.2,0-0.3-0.3-0.5-0.8c-0.2-0.6-0.6-0.9-1.1-0.9c-0.8,0-1.3,0.7-1.3,2s0.7,2.2,1.7,2.2
		c0.5,0,0.9-0.2,1.4-0.6c0.3-0.2,0.4-0.5,0.6-0.5S26,7.4,26,7.6s-0.2,0.5-0.5,0.9c-0.5,0.6-1.3,0.9-2.2,0.9c-1.9,0-3.2-1.2-3.2-2.9
		c0-0.8,0.4-1.6,1.1-2.2c0.6-0.5,1.4-0.8,2.3-0.8c1.3,0,2.3,0.6,2.3,0.9c0,0.1,0,0.2-0.1,0.2l-0.6,1.2C25.1,5.9,25,5.9,24.9,5.9z"/>
	<path class="st0" d="M28.5,9.3c-1.2,0-2-0.7-2-1.7c0-1.2,1.1-2,3-2h0.4c-0.2-0.9-0.5-1.2-1.2-1.2c-0.8,0-1.2,0.6-1.5,0.6
		c-0.2,0-0.3-0.1-0.3-0.3c0-0.5,0.9-1.3,2.4-1.3c1.3,0,1.9,0.6,2.3,2.1l0.6,1.9c0.2,0.6,0.4,0.9,0.7,0.9c0.2,0,0.3-0.1,0.3-0.1
		c0.1,0,0.2,0.1,0.2,0.4c0,0.5-0.5,0.8-1.2,0.8c-0.6,0-1-0.2-1.4-0.7C30,9,29.3,9.2,28.5,9.3z M29.5,6.4c-0.7,0-1.2,0.4-1.2,1
		s0.4,0.9,1.1,0.9c0.6,0,1-0.3,1-0.7c0-0.1,0-0.2,0-0.3l-0.2-0.6C30.1,6.5,29.9,6.4,29.5,6.4z"/>
	<path class="st0" d="M37.8,2.1C37.6,2,37.4,2,37.4,1.7c0-0.2,0.2-0.3,0.6-0.5l1.3-0.7c0.1-0.1,0.2-0.1,0.3-0.1
		c0.2,0,0.2,0.1,0.2,0.3v6.7c0,0.3,0,0.5,0.3,0.6c0.2,0.2,0.4,0.2,0.4,0.5c0,0.2-0.1,0.3-0.3,0.3C39.5,8.9,38.8,9,38.5,9
		c-0.4,0-0.4-0.2-0.4-0.8C37.5,8.7,36.9,9,36.3,9c-1.4,0-2.4-1.1-2.4-2.7c0-0.7,0.2-1.3,0.6-1.9c0.6-0.8,1.4-1.3,2.3-1.3
		c0.5,0,1,0.1,1.4,0.4V2.2C38,2.2,37.9,2.1,37.8,2.1z M37,8c0.6,0,1.1-0.6,1.1-1.6c0-1.5-0.4-2.2-1.3-2.2c-0.8,0-1.4,0.7-1.4,1.7
		C35.4,7.1,36.1,8,37,8z"/>
	<path class="st0" d="M41.3,4.9c-0.2-0.1-0.4-0.1-0.4-0.3s0.2-0.3,0.5-0.4l1.3-0.6c0.1,0,0.2-0.1,0.3-0.1c0.2,0,0.2,0.1,0.2,0.4v3.9
		c0,0.3,0.1,0.5,0.3,0.6c0.2,0.2,0.4,0.2,0.4,0.5c0,0.2-0.2,0.4-0.5,0.4h-2.2c-0.3,0-0.4-0.2-0.4-0.4c0-0.3,0.2-0.3,0.4-0.5
		c0.2-0.1,0.3-0.3,0.3-0.6V5.4C41.6,5,41.6,4.9,41.3,4.9z M41.2,2.2c0-0.5,0.7-1.1,1.5-1.1c0.4,0,0.6,0.2,0.6,0.5
		c0,0.6-0.7,1.1-1.5,1.1C41.5,2.7,41.2,2.5,41.2,2.2z"/>
	<path class="st0" d="M46.7,9.3c-1.2,0-2-0.7-2-1.7c0-1.2,1.1-2,3-2h0.4c-0.2-0.9-0.5-1.2-1.2-1.2c-0.8,0-1.2,0.6-1.5,0.6
		c-0.2,0-0.3-0.1-0.3-0.3c0-0.5,0.9-1.3,2.4-1.3c1.3,0,1.9,0.6,2.3,2.1l0.6,1.9c0.2,0.6,0.4,0.9,0.7,0.9c0.2,0,0.3-0.1,0.3-0.1
		c0.1,0,0.2,0.1,0.2,0.4c0,0.5-0.5,0.8-1.2,0.8c-0.6,0-1-0.2-1.4-0.7C48.3,9,47.5,9.2,46.7,9.3z M47.8,6.4c-0.7,0-1.2,0.4-1.2,1
		s0.4,0.9,1.1,0.9c0.6,0,1-0.3,1-0.7c0-0.1,0-0.2,0-0.3l-0.2-0.6C48.4,6.5,48.1,6.4,47.8,6.4z"/>
</g>
</svg>
